<?xml version="1.0" encoding="UTF-8" standalone="no"?> <!-- Created with Vectornator for iOS (http://vectornator.io/) --><!DOCTYPE svg PUBLIC "-//W3C//DTD SVG 1.1//EN" "http://www.w3.org/Graphics/SVG/1.1/DTD/svg11.dtd">
<svg height="100%" style="fill-rule:evenodd;clip-rule:evenodd;stroke-linecap:round;stroke-linejoin:round;" xmlns:xlink="http://www.w3.org/1999/xlink" xmlns="http://www.w3.org/2000/svg" xml:space="preserve" width="100%" xmlns:vectornator="http://vectornator.io" version="1.1" viewBox="0 0 314.652 314.652">
<metadata>
<vectornator:setting key="DynamicGuides" value="1"/>
<vectornator:setting key="Units" value="Points"/>
<vectornator:setting key="GuidesVisible" value="1"/>
<vectornator:setting key="RulersVisible" value="1"/>
<vectornator:setting key="SnapToGuides" value="1"/>
<vectornator:setting key="GridSpacing" value="36"/>
</metadata>
<defs/>
<g id="Untitled" vectornator:layerName="Untitled">
<g opacity="1">
<path d="M157.326+0C70.576+0+0+70.576+0+157.326C0+244.076+70.576+314.652+157.326+314.652C244.076+314.652+314.652+244.076+314.652+157.326C314.652+70.576+244.076+0+157.326+0ZM157.326+296.652C80.501+296.652+18+234.15+18+157.326C18+80.502+80.501+18+157.326+18C234.151+18+296.652+80.502+296.652+157.326C296.652+234.15+234.151+296.652+157.326+296.652Z" opacity="1" fill="#ef8354"/>
<path d="M193.764+71.952L172.43+71.952C154.969+71.952+140.763+86.158+140.763+103.619L140.763+127.619L120.888+127.619C115.917+127.619+111.888+131.648+111.888+136.619C111.888+141.59+115.917+145.619+120.888+145.619L140.763+145.619L140.763+228.952C140.763+233.923+144.792+237.952+149.763+237.952C154.734+237.952+158.763+233.923+158.763+228.952L158.763+145.619L189.513+145.619C194.484+145.619+198.513+141.59+198.513+136.619C198.513+131.648+194.484+127.619+189.513+127.619L158.763+127.619L158.763+103.619C158.763+96.083+164.894+89.952+172.43+89.952L193.763+89.952C198.734+89.952+202.763+85.923+202.763+80.952C202.763+75.981+198.734+71.952+193.764+71.952Z" opacity="1" fill="#ef8354"/>
</g>
</g>
</svg>
